<?xml version="1.0" encoding="utf-8"?>
<svg version="1.1" xmlns="http://www.w3.org/2000/svg" xmlns:xlink="http://www.w3.org/1999/xlink" x="0px" y="0px"
	 viewBox="0 0 150 100" style="enable-background:new 0 0 150 100;" xml:space="preserve">
<style type="text/css">
	.st0{display:none;}
	.st1{display:inline;}
	.st2{fill:none;stroke:#E5E5E6;stroke-width:0.25;stroke-miterlimit:10;}
	.st3{fill:#231815;}
</style>
<g id="grid" class="st0">
	<g class="st1">
		<g>
			<line class="st2" x1="-213.6" y1="30" x2="628.2" y2="30"/>
		</g>
		<g>
			<line class="st2" x1="-213.6" y1="40" x2="628.2" y2="40"/>
		</g>
		<g>
			<line class="st2" x1="-213.6" y1="50" x2="628.2" y2="50"/>
		</g>
		<g>
			<line class="st2" x1="-213.6" y1="60" x2="628.2" y2="60"/>
		</g>
		<g>
			<line class="st2" x1="-213.6" y1="70" x2="628.2" y2="70"/>
		</g>
		<g>
			<line class="st2" x1="-213.6" y1="80" x2="628.2" y2="80"/>
		</g>
		<g>
			<line class="st2" x1="-213.6" y1="90" x2="628.2" y2="90"/>
		</g>
		<g>
			<line class="st2" x1="-213.6" y1="100" x2="628.2" y2="100"/>
		</g>
		<g>
			<line class="st2" x1="-213.6" y1="110" x2="628.2" y2="110"/>
		</g>
		<g>
			<line class="st2" x1="-213.6" y1="120" x2="628.2" y2="120"/>
		</g>
		<g>
			<line class="st2" x1="-213.6" y1="130" x2="628.2" y2="130"/>
		</g>
		<g>
			<line class="st2" x1="-213.6" y1="140" x2="628.2" y2="140"/>
		</g>
		<g>
			<line class="st2" x1="-213.6" y1="150" x2="628.2" y2="150"/>
		</g>
		<g>
			<line class="st2" x1="-213.6" y1="160" x2="628.2" y2="160"/>
		</g>
		<g>
			<line class="st2" x1="-213.6" y1="170" x2="628.2" y2="170"/>
		</g>
		<g>
			<line class="st2" x1="-213.6" y1="180" x2="628.2" y2="180"/>
		</g>
		<g>
			<line class="st2" x1="-213.6" y1="190" x2="628.2" y2="190"/>
		</g>
		<g>
			<line class="st2" x1="-213.6" y1="200" x2="628.2" y2="200"/>
		</g>
		<g>
			<line class="st2" x1="-213.6" y1="210" x2="628.2" y2="210"/>
		</g>
		<g>
			<line class="st2" x1="-213.6" y1="220" x2="628.2" y2="220"/>
		</g>
		<g>
			<line class="st2" x1="-213.6" y1="230" x2="628.2" y2="230"/>
		</g>
		<g>
			<line class="st2" x1="-213.6" y1="240" x2="628.2" y2="240"/>
		</g>
		<g>
			<line class="st2" x1="-213.6" y1="250" x2="628.2" y2="250"/>
		</g>
		<g>
			<line class="st2" x1="-213.6" y1="260" x2="628.2" y2="260"/>
		</g>
		<g>
			<line class="st2" x1="-213.6" y1="270" x2="628.2" y2="270"/>
		</g>
		<g>
			<line class="st2" x1="-213.6" y1="280" x2="628.2" y2="280"/>
		</g>
		<g>
			<line class="st2" x1="-213.6" y1="290" x2="628.2" y2="290"/>
		</g>
		<g>
			<line class="st2" x1="-213.6" y1="300" x2="628.2" y2="300"/>
		</g>
		<g>
			<line class="st2" x1="-213.6" y1="310" x2="628.2" y2="310"/>
		</g>
		<g>
			<line class="st2" x1="-213.6" y1="320" x2="628.2" y2="320"/>
		</g>
		<g>
			<line class="st2" x1="-213.6" y1="330" x2="628.2" y2="330"/>
		</g>
		<g>
			<line class="st2" x1="-213.6" y1="340" x2="628.2" y2="340"/>
		</g>
		<g>
			<line class="st2" x1="-213.6" y1="350" x2="628.2" y2="350"/>
		</g>
		<g>
			<line class="st2" x1="-213.6" y1="360" x2="628.2" y2="360"/>
		</g>
		<g>
			<line class="st2" x1="-213.6" y1="370" x2="628.2" y2="370"/>
		</g>
		<g>
			<line class="st2" x1="-213.6" y1="380" x2="628.2" y2="380"/>
		</g>
		<g>
			<line class="st2" x1="-213.6" y1="390" x2="628.2" y2="390"/>
		</g>
		<g>
			<line class="st2" x1="-213.6" y1="400" x2="628.2" y2="400"/>
		</g>
		<g>
			<line class="st2" x1="-213.6" y1="410" x2="628.2" y2="410"/>
		</g>
		<g>
			<line class="st2" x1="-213.6" y1="420" x2="628.2" y2="420"/>
		</g>
		<g>
			<line class="st2" x1="-213.6" y1="430" x2="628.2" y2="430"/>
		</g>
		<g>
			<line class="st2" x1="-213.6" y1="440" x2="628.2" y2="440"/>
		</g>
		<g>
			<line class="st2" x1="-213.6" y1="450" x2="628.2" y2="450"/>
		</g>
		<g>
			<line class="st2" x1="-213.6" y1="460" x2="628.2" y2="460"/>
		</g>
		<g>
			<line class="st2" x1="-213.6" y1="470" x2="628.2" y2="470"/>
		</g>
		<g>
			<line class="st2" x1="-213.6" y1="480" x2="628.2" y2="480"/>
		</g>
		<g>
			<line class="st2" x1="-213.6" y1="490" x2="628.2" y2="490"/>
		</g>
		<g>
			<line class="st2" x1="-213.6" y1="500" x2="628.2" y2="500"/>
		</g>
		<g>
			<line class="st2" x1="-213.6" y1="510" x2="628.2" y2="510"/>
		</g>
		<g>
			<line class="st2" x1="-213.6" y1="520" x2="628.2" y2="520"/>
		</g>
		<g>
			<line class="st2" x1="-213.6" y1="530" x2="628.2" y2="530"/>
		</g>
		<g>
			<line class="st2" x1="-213.6" y1="540" x2="628.2" y2="540"/>
		</g>
		<g>
			<line class="st2" x1="-213.6" y1="550" x2="628.2" y2="550"/>
		</g>
		<g>
			<line class="st2" x1="-213.6" y1="560" x2="628.2" y2="560"/>
		</g>
		<g>
			<line class="st2" x1="-213.6" y1="570" x2="628.2" y2="570"/>
		</g>
		<g>
			<line class="st2" x1="-213.6" y1="580" x2="628.2" y2="580"/>
		</g>
		<g>
			<line class="st2" x1="-213.6" y1="590" x2="628.2" y2="590"/>
		</g>
		<g>
			<line class="st2" x1="-202.7" y1="30" x2="-202.7" y2="590.1"/>
		</g>
		<g>
			<line class="st2" x1="-192.7" y1="30" x2="-192.7" y2="590.1"/>
		</g>
		<g>
			<line class="st2" x1="-182.7" y1="30" x2="-182.7" y2="590.1"/>
		</g>
		<g>
			<line class="st2" x1="-172.7" y1="30" x2="-172.7" y2="590.1"/>
		</g>
		<g>
			<line class="st2" x1="-162.7" y1="30" x2="-162.7" y2="590.1"/>
		</g>
		<g>
			<line class="st2" x1="-152.7" y1="30" x2="-152.7" y2="590.1"/>
		</g>
		<g>
			<line class="st2" x1="-142.7" y1="30" x2="-142.7" y2="590.1"/>
		</g>
		<g>
			<line class="st2" x1="-132.7" y1="30" x2="-132.7" y2="590.1"/>
		</g>
		<g>
			<line class="st2" x1="-122.7" y1="30" x2="-122.7" y2="590.1"/>
		</g>
		<g>
			<line class="st2" x1="-112.7" y1="30" x2="-112.7" y2="590.1"/>
		</g>
		<g>
			<line class="st2" x1="-102.7" y1="30" x2="-102.7" y2="590.1"/>
		</g>
		<g>
			<line class="st2" x1="-92.7" y1="30" x2="-92.7" y2="590.1"/>
		</g>
		<g>
			<line class="st2" x1="-82.7" y1="30" x2="-82.7" y2="590.1"/>
		</g>
		<g>
			<line class="st2" x1="-72.7" y1="30" x2="-72.7" y2="590.1"/>
		</g>
		<g>
			<line class="st2" x1="-62.7" y1="30" x2="-62.7" y2="590.1"/>
		</g>
		<g>
			<line class="st2" x1="-52.7" y1="30" x2="-52.7" y2="590.1"/>
		</g>
		<g>
			<line class="st2" x1="-42.7" y1="30" x2="-42.7" y2="590.1"/>
		</g>
		<g>
			<line class="st2" x1="-32.7" y1="30" x2="-32.7" y2="590.1"/>
		</g>
		<g>
			<line class="st2" x1="-22.7" y1="30" x2="-22.7" y2="590.1"/>
		</g>
		<g>
			<line class="st2" x1="-12.7" y1="30" x2="-12.7" y2="590.1"/>
		</g>
		<g>
			<line class="st2" x1="-2.7" y1="30" x2="-2.7" y2="590.1"/>
		</g>
		<g>
			<line class="st2" x1="7.3" y1="30" x2="7.3" y2="590.1"/>
		</g>
		<g>
			<line class="st2" x1="17.3" y1="30" x2="17.3" y2="590.1"/>
		</g>
		<g>
			<line class="st2" x1="27.3" y1="30" x2="27.3" y2="590.1"/>
		</g>
		<g>
			<line class="st2" x1="37.3" y1="30" x2="37.3" y2="590.1"/>
		</g>
		<g>
			<line class="st2" x1="47.3" y1="30" x2="47.3" y2="590.1"/>
		</g>
		<g>
			<line class="st2" x1="57.3" y1="30" x2="57.3" y2="590.1"/>
		</g>
		<g>
			<line class="st2" x1="67.3" y1="30" x2="67.3" y2="590.1"/>
		</g>
		<g>
			<line class="st2" x1="77.3" y1="30" x2="77.3" y2="590.1"/>
		</g>
		<g>
			<line class="st2" x1="87.3" y1="30" x2="87.3" y2="590.1"/>
		</g>
		<g>
			<line class="st2" x1="97.3" y1="30" x2="97.3" y2="590.1"/>
		</g>
		<g>
			<line class="st2" x1="107.3" y1="30" x2="107.3" y2="590.1"/>
		</g>
		<g>
			<line class="st2" x1="117.3" y1="30" x2="117.3" y2="590.1"/>
		</g>
		<g>
			<line class="st2" x1="127.3" y1="30" x2="127.3" y2="590.1"/>
		</g>
		<g>
			<line class="st2" x1="137.3" y1="30" x2="137.3" y2="590.1"/>
		</g>
		<g>
			<line class="st2" x1="147.3" y1="30" x2="147.3" y2="590.1"/>
		</g>
		<g>
			<line class="st2" x1="157.3" y1="30" x2="157.3" y2="590.1"/>
		</g>
		<g>
			<line class="st2" x1="167.3" y1="30" x2="167.3" y2="590.1"/>
		</g>
		<g>
			<line class="st2" x1="177.3" y1="30" x2="177.3" y2="590.1"/>
		</g>
		<g>
			<line class="st2" x1="187.3" y1="30" x2="187.3" y2="590.1"/>
		</g>
		<g>
			<line class="st2" x1="197.3" y1="30" x2="197.3" y2="590.1"/>
		</g>
		<g>
			<line class="st2" x1="207.3" y1="30" x2="207.3" y2="590.1"/>
		</g>
		<g>
			<line class="st2" x1="217.3" y1="30" x2="217.3" y2="590.1"/>
		</g>
		<g>
			<line class="st2" x1="227.3" y1="30" x2="227.3" y2="590.1"/>
		</g>
		<g>
			<line class="st2" x1="237.3" y1="30" x2="237.3" y2="590.1"/>
		</g>
		<g>
			<line class="st2" x1="247.3" y1="30" x2="247.3" y2="590.1"/>
		</g>
		<g>
			<line class="st2" x1="257.3" y1="30" x2="257.3" y2="590.1"/>
		</g>
		<g>
			<line class="st2" x1="267.3" y1="30" x2="267.3" y2="590.1"/>
		</g>
		<g>
			<line class="st2" x1="277.3" y1="30" x2="277.3" y2="590.1"/>
		</g>
		<g>
			<line class="st2" x1="287.3" y1="30" x2="287.3" y2="590.1"/>
		</g>
		<g>
			<line class="st2" x1="297.3" y1="30" x2="297.3" y2="590.1"/>
		</g>
		<g>
			<line class="st2" x1="307.3" y1="30" x2="307.3" y2="590.1"/>
		</g>
		<g>
			<line class="st2" x1="317.3" y1="30" x2="317.3" y2="590.1"/>
		</g>
		<g>
			<line class="st2" x1="327.3" y1="30" x2="327.3" y2="590.1"/>
		</g>
		<g>
			<line class="st2" x1="337.3" y1="30" x2="337.3" y2="590.1"/>
		</g>
		<g>
			<line class="st2" x1="347.3" y1="30" x2="347.3" y2="590.1"/>
		</g>
		<g>
			<line class="st2" x1="357.3" y1="30" x2="357.3" y2="590.1"/>
		</g>
		<g>
			<line class="st2" x1="367.3" y1="30" x2="367.3" y2="590.1"/>
		</g>
		<g>
			<line class="st2" x1="377.3" y1="30" x2="377.3" y2="590.1"/>
		</g>
		<g>
			<line class="st2" x1="387.3" y1="30" x2="387.3" y2="590.1"/>
		</g>
		<g>
			<line class="st2" x1="397.3" y1="30" x2="397.3" y2="590.1"/>
		</g>
		<g>
			<line class="st2" x1="407.3" y1="30" x2="407.3" y2="590.1"/>
		</g>
		<g>
			<line class="st2" x1="417.3" y1="30" x2="417.3" y2="590.1"/>
		</g>
		<g>
			<line class="st2" x1="427.3" y1="30" x2="427.3" y2="590.1"/>
		</g>
		<g>
			<line class="st2" x1="437.3" y1="30" x2="437.3" y2="590.1"/>
		</g>
		<g>
			<line class="st2" x1="447.3" y1="30" x2="447.3" y2="590.1"/>
		</g>
		<g>
			<line class="st2" x1="457.3" y1="30" x2="457.3" y2="590.1"/>
		</g>
		<g>
			<line class="st2" x1="467.3" y1="30" x2="467.3" y2="590.1"/>
		</g>
		<g>
			<line class="st2" x1="477.3" y1="30" x2="477.3" y2="590.1"/>
		</g>
		<g>
			<line class="st2" x1="487.3" y1="30" x2="487.3" y2="590.1"/>
		</g>
		<g>
			<line class="st2" x1="497.3" y1="30" x2="497.3" y2="590.1"/>
		</g>
		<g>
			<line class="st2" x1="507.3" y1="30" x2="507.3" y2="590.1"/>
		</g>
		<g>
			<line class="st2" x1="517.3" y1="30" x2="517.3" y2="590.1"/>
		</g>
		<g>
			<line class="st2" x1="527.3" y1="30" x2="527.3" y2="590.1"/>
		</g>
		<g>
			<line class="st2" x1="537.3" y1="30" x2="537.3" y2="590.1"/>
		</g>
		<g>
			<line class="st2" x1="547.3" y1="30" x2="547.3" y2="590.1"/>
		</g>
		<g>
			<line class="st2" x1="557.3" y1="30" x2="557.3" y2="590.1"/>
		</g>
		<g>
			<line class="st2" x1="567.3" y1="30" x2="567.3" y2="590.1"/>
		</g>
		<g>
			<line class="st2" x1="577.3" y1="30" x2="577.3" y2="590.1"/>
		</g>
		<g>
			<line class="st2" x1="587.3" y1="30" x2="587.3" y2="590.1"/>
		</g>
		<g>
			<line class="st2" x1="597.3" y1="30" x2="597.3" y2="590.1"/>
		</g>
		<g>
			<line class="st2" x1="607.3" y1="30" x2="607.3" y2="590.1"/>
		</g>
		<g>
			<line class="st2" x1="617.3" y1="30" x2="617.3" y2="590.1"/>
		</g>
	</g>
	<g class="st1">
		<g>
			<line class="st2" x1="636.7" y1="30" x2="1478.6" y2="30"/>
		</g>
		<g>
			<line class="st2" x1="636.7" y1="40" x2="1478.6" y2="40"/>
		</g>
		<g>
			<line class="st2" x1="636.7" y1="50" x2="1478.6" y2="50"/>
		</g>
		<g>
			<line class="st2" x1="636.7" y1="60" x2="1478.6" y2="60"/>
		</g>
		<g>
			<line class="st2" x1="636.7" y1="70" x2="1478.6" y2="70"/>
		</g>
		<g>
			<line class="st2" x1="636.7" y1="80" x2="1478.6" y2="80"/>
		</g>
		<g>
			<line class="st2" x1="636.7" y1="90" x2="1478.6" y2="90"/>
		</g>
		<g>
			<line class="st2" x1="636.7" y1="100" x2="1478.6" y2="100"/>
		</g>
		<g>
			<line class="st2" x1="636.7" y1="110" x2="1478.6" y2="110"/>
		</g>
		<g>
			<line class="st2" x1="636.7" y1="120" x2="1478.6" y2="120"/>
		</g>
		<g>
			<line class="st2" x1="636.7" y1="130" x2="1478.6" y2="130"/>
		</g>
		<g>
			<line class="st2" x1="636.7" y1="140" x2="1478.6" y2="140"/>
		</g>
		<g>
			<line class="st2" x1="636.7" y1="150" x2="1478.6" y2="150"/>
		</g>
		<g>
			<line class="st2" x1="636.7" y1="160" x2="1478.6" y2="160"/>
		</g>
		<g>
			<line class="st2" x1="636.7" y1="170" x2="1478.6" y2="170"/>
		</g>
		<g>
			<line class="st2" x1="636.7" y1="180" x2="1478.6" y2="180"/>
		</g>
		<g>
			<line class="st2" x1="636.7" y1="190" x2="1478.6" y2="190"/>
		</g>
		<g>
			<line class="st2" x1="636.7" y1="200" x2="1478.6" y2="200"/>
		</g>
		<g>
			<line class="st2" x1="636.7" y1="210" x2="1478.6" y2="210"/>
		</g>
		<g>
			<line class="st2" x1="636.7" y1="220" x2="1478.6" y2="220"/>
		</g>
		<g>
			<line class="st2" x1="636.7" y1="230" x2="1478.6" y2="230"/>
		</g>
		<g>
			<line class="st2" x1="636.7" y1="240" x2="1478.6" y2="240"/>
		</g>
		<g>
			<line class="st2" x1="636.7" y1="250" x2="1478.6" y2="250"/>
		</g>
		<g>
			<line class="st2" x1="636.7" y1="260" x2="1478.6" y2="260"/>
		</g>
		<g>
			<line class="st2" x1="636.7" y1="270" x2="1478.6" y2="270"/>
		</g>
		<g>
			<line class="st2" x1="636.7" y1="280" x2="1478.6" y2="280"/>
		</g>
		<g>
			<line class="st2" x1="636.7" y1="290" x2="1478.6" y2="290"/>
		</g>
		<g>
			<line class="st2" x1="636.7" y1="300" x2="1478.6" y2="300"/>
		</g>
		<g>
			<line class="st2" x1="636.7" y1="310" x2="1478.6" y2="310"/>
		</g>
		<g>
			<line class="st2" x1="636.7" y1="320" x2="1478.6" y2="320"/>
		</g>
		<g>
			<line class="st2" x1="636.7" y1="330" x2="1478.6" y2="330"/>
		</g>
		<g>
			<line class="st2" x1="636.7" y1="340" x2="1478.6" y2="340"/>
		</g>
		<g>
			<line class="st2" x1="636.7" y1="350" x2="1478.6" y2="350"/>
		</g>
		<g>
			<line class="st2" x1="636.7" y1="360" x2="1478.6" y2="360"/>
		</g>
		<g>
			<line class="st2" x1="636.7" y1="370" x2="1478.6" y2="370"/>
		</g>
		<g>
			<line class="st2" x1="636.7" y1="380" x2="1478.6" y2="380"/>
		</g>
		<g>
			<line class="st2" x1="636.7" y1="390" x2="1478.6" y2="390"/>
		</g>
		<g>
			<line class="st2" x1="636.7" y1="400" x2="1478.6" y2="400"/>
		</g>
		<g>
			<line class="st2" x1="636.7" y1="410" x2="1478.6" y2="410"/>
		</g>
		<g>
			<line class="st2" x1="636.7" y1="420" x2="1478.6" y2="420"/>
		</g>
		<g>
			<line class="st2" x1="636.7" y1="430" x2="1478.6" y2="430"/>
		</g>
		<g>
			<line class="st2" x1="636.7" y1="440" x2="1478.6" y2="440"/>
		</g>
		<g>
			<line class="st2" x1="636.7" y1="450" x2="1478.6" y2="450"/>
		</g>
		<g>
			<line class="st2" x1="636.7" y1="460" x2="1478.6" y2="460"/>
		</g>
		<g>
			<line class="st2" x1="636.7" y1="470" x2="1478.6" y2="470"/>
		</g>
		<g>
			<line class="st2" x1="636.7" y1="480" x2="1478.6" y2="480"/>
		</g>
		<g>
			<line class="st2" x1="636.7" y1="490" x2="1478.6" y2="490"/>
		</g>
		<g>
			<line class="st2" x1="636.7" y1="500" x2="1478.6" y2="500"/>
		</g>
		<g>
			<line class="st2" x1="636.7" y1="510" x2="1478.6" y2="510"/>
		</g>
		<g>
			<line class="st2" x1="636.7" y1="520" x2="1478.6" y2="520"/>
		</g>
		<g>
			<line class="st2" x1="636.7" y1="530" x2="1478.6" y2="530"/>
		</g>
		<g>
			<line class="st2" x1="636.7" y1="540" x2="1478.6" y2="540"/>
		</g>
		<g>
			<line class="st2" x1="636.7" y1="550" x2="1478.6" y2="550"/>
		</g>
		<g>
			<line class="st2" x1="636.7" y1="560" x2="1478.6" y2="560"/>
		</g>
		<g>
			<line class="st2" x1="636.7" y1="570" x2="1478.6" y2="570"/>
		</g>
		<g>
			<line class="st2" x1="636.7" y1="580" x2="1478.6" y2="580"/>
		</g>
		<g>
			<line class="st2" x1="636.7" y1="590" x2="1478.6" y2="590"/>
		</g>
		<g>
			<line class="st2" x1="647.7" y1="30" x2="647.7" y2="590.1"/>
		</g>
		<g>
			<line class="st2" x1="657.7" y1="30" x2="657.7" y2="590.1"/>
		</g>
		<g>
			<line class="st2" x1="667.7" y1="30" x2="667.7" y2="590.1"/>
		</g>
		<g>
			<line class="st2" x1="677.7" y1="30" x2="677.7" y2="590.1"/>
		</g>
		<g>
			<line class="st2" x1="687.7" y1="30" x2="687.7" y2="590.1"/>
		</g>
		<g>
			<line class="st2" x1="697.7" y1="30" x2="697.7" y2="590.1"/>
		</g>
		<g>
			<line class="st2" x1="707.7" y1="30" x2="707.7" y2="590.1"/>
		</g>
		<g>
			<line class="st2" x1="717.7" y1="30" x2="717.7" y2="590.1"/>
		</g>
		<g>
			<line class="st2" x1="727.7" y1="30" x2="727.7" y2="590.1"/>
		</g>
		<g>
			<line class="st2" x1="737.7" y1="30" x2="737.7" y2="590.1"/>
		</g>
		<g>
			<line class="st2" x1="747.7" y1="30" x2="747.7" y2="590.1"/>
		</g>
		<g>
			<line class="st2" x1="757.7" y1="30" x2="757.7" y2="590.1"/>
		</g>
		<g>
			<line class="st2" x1="767.7" y1="30" x2="767.7" y2="590.1"/>
		</g>
		<g>
			<line class="st2" x1="777.7" y1="30" x2="777.7" y2="590.1"/>
		</g>
		<g>
			<line class="st2" x1="787.7" y1="30" x2="787.7" y2="590.1"/>
		</g>
		<g>
			<line class="st2" x1="797.7" y1="30" x2="797.7" y2="590.1"/>
		</g>
		<g>
			<line class="st2" x1="807.7" y1="30" x2="807.7" y2="590.1"/>
		</g>
		<g>
			<line class="st2" x1="817.7" y1="30" x2="817.7" y2="590.1"/>
		</g>
		<g>
			<line class="st2" x1="827.7" y1="30" x2="827.7" y2="590.1"/>
		</g>
		<g>
			<line class="st2" x1="837.7" y1="30" x2="837.7" y2="590.1"/>
		</g>
		<g>
			<line class="st2" x1="847.7" y1="30" x2="847.7" y2="590.1"/>
		</g>
		<g>
			<line class="st2" x1="857.7" y1="30" x2="857.7" y2="590.1"/>
		</g>
		<g>
			<line class="st2" x1="867.7" y1="30" x2="867.7" y2="590.1"/>
		</g>
		<g>
			<line class="st2" x1="877.7" y1="30" x2="877.7" y2="590.1"/>
		</g>
		<g>
			<line class="st2" x1="887.7" y1="30" x2="887.7" y2="590.1"/>
		</g>
		<g>
			<line class="st2" x1="897.7" y1="30" x2="897.7" y2="590.1"/>
		</g>
		<g>
			<line class="st2" x1="907.7" y1="30" x2="907.7" y2="590.1"/>
		</g>
		<g>
			<line class="st2" x1="917.7" y1="30" x2="917.7" y2="590.1"/>
		</g>
		<g>
			<line class="st2" x1="927.7" y1="30" x2="927.7" y2="590.1"/>
		</g>
		<g>
			<line class="st2" x1="937.7" y1="30" x2="937.7" y2="590.1"/>
		</g>
		<g>
			<line class="st2" x1="947.7" y1="30" x2="947.7" y2="590.1"/>
		</g>
		<g>
			<line class="st2" x1="957.7" y1="30" x2="957.7" y2="590.1"/>
		</g>
		<g>
			<line class="st2" x1="967.7" y1="30" x2="967.7" y2="590.1"/>
		</g>
		<g>
			<line class="st2" x1="977.7" y1="30" x2="977.7" y2="590.1"/>
		</g>
		<g>
			<line class="st2" x1="987.7" y1="30" x2="987.7" y2="590.1"/>
		</g>
		<g>
			<line class="st2" x1="997.7" y1="30" x2="997.7" y2="590.1"/>
		</g>
		<g>
			<line class="st2" x1="1007.7" y1="30" x2="1007.7" y2="590.1"/>
		</g>
		<g>
			<line class="st2" x1="1017.7" y1="30" x2="1017.7" y2="590.1"/>
		</g>
		<g>
			<line class="st2" x1="1027.7" y1="30" x2="1027.7" y2="590.1"/>
		</g>
		<g>
			<line class="st2" x1="1037.7" y1="30" x2="1037.7" y2="590.1"/>
		</g>
		<g>
			<line class="st2" x1="1047.7" y1="30" x2="1047.7" y2="590.1"/>
		</g>
		<g>
			<line class="st2" x1="1057.7" y1="30" x2="1057.7" y2="590.1"/>
		</g>
		<g>
			<line class="st2" x1="1067.7" y1="30" x2="1067.7" y2="590.1"/>
		</g>
		<g>
			<line class="st2" x1="1077.7" y1="30" x2="1077.7" y2="590.1"/>
		</g>
		<g>
			<line class="st2" x1="1087.7" y1="30" x2="1087.7" y2="590.1"/>
		</g>
		<g>
			<line class="st2" x1="1097.7" y1="30" x2="1097.7" y2="590.1"/>
		</g>
		<g>
			<line class="st2" x1="1107.7" y1="30" x2="1107.7" y2="590.1"/>
		</g>
		<g>
			<line class="st2" x1="1117.7" y1="30" x2="1117.7" y2="590.1"/>
		</g>
		<g>
			<line class="st2" x1="1127.7" y1="30" x2="1127.7" y2="590.1"/>
		</g>
		<g>
			<line class="st2" x1="1137.7" y1="30" x2="1137.7" y2="590.1"/>
		</g>
		<g>
			<line class="st2" x1="1147.7" y1="30" x2="1147.7" y2="590.1"/>
		</g>
		<g>
			<line class="st2" x1="1157.7" y1="30" x2="1157.7" y2="590.1"/>
		</g>
		<g>
			<line class="st2" x1="1167.7" y1="30" x2="1167.7" y2="590.1"/>
		</g>
		<g>
			<line class="st2" x1="1177.7" y1="30" x2="1177.7" y2="590.1"/>
		</g>
		<g>
			<line class="st2" x1="1187.7" y1="30" x2="1187.7" y2="590.1"/>
		</g>
		<g>
			<line class="st2" x1="1197.7" y1="30" x2="1197.7" y2="590.1"/>
		</g>
		<g>
			<line class="st2" x1="1207.7" y1="30" x2="1207.7" y2="590.1"/>
		</g>
		<g>
			<line class="st2" x1="1217.7" y1="30" x2="1217.7" y2="590.1"/>
		</g>
		<g>
			<line class="st2" x1="1227.7" y1="30" x2="1227.7" y2="590.1"/>
		</g>
		<g>
			<line class="st2" x1="1237.7" y1="30" x2="1237.7" y2="590.1"/>
		</g>
		<g>
			<line class="st2" x1="1247.7" y1="30" x2="1247.7" y2="590.1"/>
		</g>
		<g>
			<line class="st2" x1="1257.7" y1="30" x2="1257.7" y2="590.1"/>
		</g>
		<g>
			<line class="st2" x1="1267.7" y1="30" x2="1267.7" y2="590.1"/>
		</g>
		<g>
			<line class="st2" x1="1277.7" y1="30" x2="1277.7" y2="590.1"/>
		</g>
		<g>
			<line class="st2" x1="1287.7" y1="30" x2="1287.7" y2="590.1"/>
		</g>
		<g>
			<line class="st2" x1="1297.7" y1="30" x2="1297.7" y2="590.1"/>
		</g>
		<g>
			<line class="st2" x1="1307.7" y1="30" x2="1307.7" y2="590.1"/>
		</g>
		<g>
			<line class="st2" x1="1317.7" y1="30" x2="1317.7" y2="590.1"/>
		</g>
		<g>
			<line class="st2" x1="1327.7" y1="30" x2="1327.7" y2="590.1"/>
		</g>
		<g>
			<line class="st2" x1="1337.7" y1="30" x2="1337.7" y2="590.1"/>
		</g>
		<g>
			<line class="st2" x1="1347.7" y1="30" x2="1347.7" y2="590.1"/>
		</g>
		<g>
			<line class="st2" x1="1357.7" y1="30" x2="1357.7" y2="590.1"/>
		</g>
		<g>
			<line class="st2" x1="1367.7" y1="30" x2="1367.7" y2="590.1"/>
		</g>
		<g>
			<line class="st2" x1="1377.7" y1="30" x2="1377.7" y2="590.1"/>
		</g>
		<g>
			<line class="st2" x1="1387.7" y1="30" x2="1387.7" y2="590.1"/>
		</g>
		<g>
			<line class="st2" x1="1397.7" y1="30" x2="1397.7" y2="590.1"/>
		</g>
		<g>
			<line class="st2" x1="1407.7" y1="30" x2="1407.7" y2="590.1"/>
		</g>
		<g>
			<line class="st2" x1="1417.7" y1="30" x2="1417.7" y2="590.1"/>
		</g>
		<g>
			<line class="st2" x1="1427.7" y1="30" x2="1427.7" y2="590.1"/>
		</g>
		<g>
			<line class="st2" x1="1437.7" y1="30" x2="1437.7" y2="590.1"/>
		</g>
		<g>
			<line class="st2" x1="1447.7" y1="30" x2="1447.7" y2="590.1"/>
		</g>
		<g>
			<line class="st2" x1="1457.7" y1="30" x2="1457.7" y2="590.1"/>
		</g>
		<g>
			<line class="st2" x1="1467.7" y1="30" x2="1467.7" y2="590.1"/>
		</g>
	</g>
	<g class="st1">
		<g>
			<line class="st2" x1="-213.6" y1="666.2" x2="628.2" y2="666.2"/>
		</g>
		<g>
			<line class="st2" x1="-213.6" y1="676.2" x2="628.2" y2="676.2"/>
		</g>
		<g>
			<line class="st2" x1="-213.6" y1="686.2" x2="628.2" y2="686.2"/>
		</g>
		<g>
			<line class="st2" x1="-213.6" y1="696.2" x2="628.2" y2="696.2"/>
		</g>
		<g>
			<line class="st2" x1="-213.6" y1="706.2" x2="628.2" y2="706.2"/>
		</g>
		<g>
			<line class="st2" x1="-213.6" y1="716.2" x2="628.2" y2="716.2"/>
		</g>
		<g>
			<line class="st2" x1="-213.6" y1="726.2" x2="628.2" y2="726.2"/>
		</g>
		<g>
			<line class="st2" x1="-213.6" y1="736.2" x2="628.2" y2="736.2"/>
		</g>
		<g>
			<line class="st2" x1="-213.6" y1="746.2" x2="628.2" y2="746.2"/>
		</g>
		<g>
			<line class="st2" x1="-213.6" y1="756.2" x2="628.2" y2="756.2"/>
		</g>
		<g>
			<line class="st2" x1="-213.6" y1="766.2" x2="628.2" y2="766.2"/>
		</g>
		<g>
			<line class="st2" x1="-213.6" y1="776.2" x2="628.2" y2="776.2"/>
		</g>
		<g>
			<line class="st2" x1="-213.6" y1="786.2" x2="628.2" y2="786.2"/>
		</g>
		<g>
			<line class="st2" x1="-213.6" y1="796.2" x2="628.2" y2="796.2"/>
		</g>
		<g>
			<line class="st2" x1="-213.6" y1="806.2" x2="628.2" y2="806.2"/>
		</g>
		<g>
			<line class="st2" x1="-213.6" y1="816.2" x2="628.2" y2="816.2"/>
		</g>
		<g>
			<line class="st2" x1="-213.6" y1="826.2" x2="628.2" y2="826.2"/>
		</g>
		<g>
			<line class="st2" x1="-213.6" y1="836.2" x2="628.2" y2="836.2"/>
		</g>
		<g>
			<line class="st2" x1="-213.6" y1="846.2" x2="628.2" y2="846.2"/>
		</g>
		<g>
			<line class="st2" x1="-213.6" y1="856.2" x2="628.2" y2="856.2"/>
		</g>
		<g>
			<line class="st2" x1="-213.6" y1="866.2" x2="628.2" y2="866.2"/>
		</g>
		<g>
			<line class="st2" x1="-213.6" y1="876.2" x2="628.2" y2="876.2"/>
		</g>
		<g>
			<line class="st2" x1="-213.6" y1="886.2" x2="628.2" y2="886.2"/>
		</g>
		<g>
			<line class="st2" x1="-213.6" y1="896.2" x2="628.2" y2="896.2"/>
		</g>
		<g>
			<line class="st2" x1="-213.6" y1="906.2" x2="628.2" y2="906.2"/>
		</g>
		<g>
			<line class="st2" x1="-213.6" y1="916.2" x2="628.2" y2="916.2"/>
		</g>
		<g>
			<line class="st2" x1="-213.6" y1="926.2" x2="628.2" y2="926.2"/>
		</g>
		<g>
			<line class="st2" x1="-213.6" y1="936.2" x2="628.2" y2="936.2"/>
		</g>
		<g>
			<line class="st2" x1="-213.6" y1="946.2" x2="628.2" y2="946.2"/>
		</g>
		<g>
			<line class="st2" x1="-213.6" y1="956.2" x2="628.2" y2="956.2"/>
		</g>
		<g>
			<line class="st2" x1="-213.6" y1="966.2" x2="628.2" y2="966.2"/>
		</g>
		<g>
			<line class="st2" x1="-213.6" y1="976.2" x2="628.2" y2="976.2"/>
		</g>
		<g>
			<line class="st2" x1="-213.6" y1="986.2" x2="628.2" y2="986.2"/>
		</g>
		<g>
			<line class="st2" x1="-213.6" y1="996.2" x2="628.2" y2="996.2"/>
		</g>
		<g>
			<line class="st2" x1="-213.6" y1="1006.2" x2="628.2" y2="1006.2"/>
		</g>
		<g>
			<line class="st2" x1="-213.6" y1="1016.2" x2="628.2" y2="1016.2"/>
		</g>
		<g>
			<line class="st2" x1="-213.6" y1="1026.2" x2="628.2" y2="1026.2"/>
		</g>
		<g>
			<line class="st2" x1="-213.6" y1="1036.2" x2="628.2" y2="1036.2"/>
		</g>
		<g>
			<line class="st2" x1="-213.6" y1="1046.2" x2="628.2" y2="1046.2"/>
		</g>
		<g>
			<line class="st2" x1="-213.6" y1="1056.2" x2="628.2" y2="1056.2"/>
		</g>
		<g>
			<line class="st2" x1="-213.6" y1="1066.2" x2="628.2" y2="1066.2"/>
		</g>
		<g>
			<line class="st2" x1="-213.6" y1="1076.2" x2="628.2" y2="1076.2"/>
		</g>
		<g>
			<line class="st2" x1="-213.6" y1="1086.2" x2="628.2" y2="1086.2"/>
		</g>
		<g>
			<line class="st2" x1="-213.6" y1="1096.2" x2="628.2" y2="1096.2"/>
		</g>
		<g>
			<line class="st2" x1="-213.6" y1="1106.2" x2="628.2" y2="1106.2"/>
		</g>
		<g>
			<line class="st2" x1="-213.6" y1="1116.2" x2="628.2" y2="1116.2"/>
		</g>
		<g>
			<line class="st2" x1="-213.6" y1="1126.2" x2="628.2" y2="1126.2"/>
		</g>
		<g>
			<line class="st2" x1="-213.6" y1="1136.2" x2="628.2" y2="1136.2"/>
		</g>
		<g>
			<line class="st2" x1="-213.6" y1="1146.2" x2="628.2" y2="1146.2"/>
		</g>
		<g>
			<line class="st2" x1="-213.6" y1="1156.2" x2="628.2" y2="1156.2"/>
		</g>
		<g>
			<line class="st2" x1="-213.6" y1="1166.2" x2="628.2" y2="1166.2"/>
		</g>
		<g>
			<line class="st2" x1="-213.6" y1="1176.2" x2="628.2" y2="1176.2"/>
		</g>
		<g>
			<line class="st2" x1="-213.6" y1="1186.2" x2="628.2" y2="1186.2"/>
		</g>
		<g>
			<line class="st2" x1="-213.6" y1="1196.2" x2="628.2" y2="1196.2"/>
		</g>
		<g>
			<line class="st2" x1="-213.6" y1="1206.2" x2="628.2" y2="1206.2"/>
		</g>
		<g>
			<line class="st2" x1="-213.6" y1="1216.2" x2="628.2" y2="1216.2"/>
		</g>
		<g>
			<line class="st2" x1="-213.6" y1="1226.2" x2="628.2" y2="1226.2"/>
		</g>
		<g>
			<line class="st2" x1="-202.7" y1="666.2" x2="-202.7" y2="1226.4"/>
		</g>
		<g>
			<line class="st2" x1="-192.7" y1="666.2" x2="-192.7" y2="1226.4"/>
		</g>
		<g>
			<line class="st2" x1="-182.7" y1="666.2" x2="-182.7" y2="1226.4"/>
		</g>
		<g>
			<line class="st2" x1="-172.7" y1="666.2" x2="-172.7" y2="1226.4"/>
		</g>
		<g>
			<line class="st2" x1="-162.7" y1="666.2" x2="-162.7" y2="1226.4"/>
		</g>
		<g>
			<line class="st2" x1="-152.7" y1="666.2" x2="-152.7" y2="1226.4"/>
		</g>
		<g>
			<line class="st2" x1="-142.7" y1="666.2" x2="-142.7" y2="1226.4"/>
		</g>
		<g>
			<line class="st2" x1="-132.7" y1="666.2" x2="-132.7" y2="1226.4"/>
		</g>
		<g>
			<line class="st2" x1="-122.7" y1="666.2" x2="-122.7" y2="1226.4"/>
		</g>
		<g>
			<line class="st2" x1="-112.7" y1="666.2" x2="-112.7" y2="1226.4"/>
		</g>
		<g>
			<line class="st2" x1="-102.7" y1="666.2" x2="-102.7" y2="1226.4"/>
		</g>
		<g>
			<line class="st2" x1="-92.7" y1="666.2" x2="-92.7" y2="1226.4"/>
		</g>
		<g>
			<line class="st2" x1="-82.7" y1="666.2" x2="-82.7" y2="1226.4"/>
		</g>
		<g>
			<line class="st2" x1="-72.7" y1="666.2" x2="-72.7" y2="1226.4"/>
		</g>
		<g>
			<line class="st2" x1="-62.7" y1="666.2" x2="-62.7" y2="1226.4"/>
		</g>
		<g>
			<line class="st2" x1="-52.7" y1="666.2" x2="-52.7" y2="1226.4"/>
		</g>
		<g>
			<line class="st2" x1="-42.7" y1="666.2" x2="-42.7" y2="1226.4"/>
		</g>
		<g>
			<line class="st2" x1="-32.7" y1="666.2" x2="-32.7" y2="1226.4"/>
		</g>
		<g>
			<line class="st2" x1="-22.7" y1="666.2" x2="-22.7" y2="1226.4"/>
		</g>
		<g>
			<line class="st2" x1="-12.7" y1="666.2" x2="-12.7" y2="1226.4"/>
		</g>
		<g>
			<line class="st2" x1="-2.7" y1="666.2" x2="-2.7" y2="1226.4"/>
		</g>
		<g>
			<line class="st2" x1="7.3" y1="666.2" x2="7.3" y2="1226.4"/>
		</g>
		<g>
			<line class="st2" x1="17.3" y1="666.2" x2="17.3" y2="1226.4"/>
		</g>
		<g>
			<line class="st2" x1="27.3" y1="666.2" x2="27.3" y2="1226.4"/>
		</g>
		<g>
			<line class="st2" x1="37.3" y1="666.2" x2="37.3" y2="1226.4"/>
		</g>
		<g>
			<line class="st2" x1="47.3" y1="666.2" x2="47.3" y2="1226.4"/>
		</g>
		<g>
			<line class="st2" x1="57.3" y1="666.2" x2="57.3" y2="1226.4"/>
		</g>
		<g>
			<line class="st2" x1="67.3" y1="666.2" x2="67.3" y2="1226.4"/>
		</g>
		<g>
			<line class="st2" x1="77.3" y1="666.2" x2="77.3" y2="1226.4"/>
		</g>
		<g>
			<line class="st2" x1="87.3" y1="666.2" x2="87.3" y2="1226.4"/>
		</g>
		<g>
			<line class="st2" x1="97.3" y1="666.2" x2="97.3" y2="1226.4"/>
		</g>
		<g>
			<line class="st2" x1="107.3" y1="666.2" x2="107.3" y2="1226.4"/>
		</g>
		<g>
			<line class="st2" x1="117.3" y1="666.2" x2="117.3" y2="1226.4"/>
		</g>
		<g>
			<line class="st2" x1="127.3" y1="666.2" x2="127.3" y2="1226.4"/>
		</g>
		<g>
			<line class="st2" x1="137.3" y1="666.2" x2="137.3" y2="1226.4"/>
		</g>
		<g>
			<line class="st2" x1="147.3" y1="666.2" x2="147.3" y2="1226.4"/>
		</g>
		<g>
			<line class="st2" x1="157.3" y1="666.2" x2="157.3" y2="1226.4"/>
		</g>
		<g>
			<line class="st2" x1="167.3" y1="666.2" x2="167.3" y2="1226.4"/>
		</g>
		<g>
			<line class="st2" x1="177.3" y1="666.2" x2="177.3" y2="1226.4"/>
		</g>
		<g>
			<line class="st2" x1="187.3" y1="666.2" x2="187.3" y2="1226.4"/>
		</g>
		<g>
			<line class="st2" x1="197.3" y1="666.2" x2="197.3" y2="1226.4"/>
		</g>
		<g>
			<line class="st2" x1="207.3" y1="666.2" x2="207.3" y2="1226.4"/>
		</g>
		<g>
			<line class="st2" x1="217.3" y1="666.2" x2="217.3" y2="1226.4"/>
		</g>
		<g>
			<line class="st2" x1="227.3" y1="666.2" x2="227.3" y2="1226.4"/>
		</g>
		<g>
			<line class="st2" x1="237.3" y1="666.2" x2="237.3" y2="1226.4"/>
		</g>
		<g>
			<line class="st2" x1="247.3" y1="666.2" x2="247.3" y2="1226.4"/>
		</g>
		<g>
			<line class="st2" x1="257.3" y1="666.2" x2="257.3" y2="1226.4"/>
		</g>
		<g>
			<line class="st2" x1="267.3" y1="666.2" x2="267.3" y2="1226.4"/>
		</g>
		<g>
			<line class="st2" x1="277.3" y1="666.2" x2="277.3" y2="1226.4"/>
		</g>
		<g>
			<line class="st2" x1="287.3" y1="666.2" x2="287.3" y2="1226.4"/>
		</g>
		<g>
			<line class="st2" x1="297.3" y1="666.2" x2="297.3" y2="1226.4"/>
		</g>
		<g>
			<line class="st2" x1="307.3" y1="666.2" x2="307.3" y2="1226.4"/>
		</g>
		<g>
			<line class="st2" x1="317.3" y1="666.2" x2="317.3" y2="1226.4"/>
		</g>
		<g>
			<line class="st2" x1="327.3" y1="666.2" x2="327.3" y2="1226.4"/>
		</g>
		<g>
			<line class="st2" x1="337.3" y1="666.2" x2="337.3" y2="1226.4"/>
		</g>
		<g>
			<line class="st2" x1="347.3" y1="666.2" x2="347.3" y2="1226.4"/>
		</g>
		<g>
			<line class="st2" x1="357.3" y1="666.2" x2="357.3" y2="1226.4"/>
		</g>
		<g>
			<line class="st2" x1="367.3" y1="666.2" x2="367.3" y2="1226.4"/>
		</g>
		<g>
			<line class="st2" x1="377.3" y1="666.2" x2="377.3" y2="1226.4"/>
		</g>
		<g>
			<line class="st2" x1="387.3" y1="666.2" x2="387.3" y2="1226.4"/>
		</g>
		<g>
			<line class="st2" x1="397.3" y1="666.2" x2="397.3" y2="1226.4"/>
		</g>
		<g>
			<line class="st2" x1="407.3" y1="666.2" x2="407.3" y2="1226.4"/>
		</g>
		<g>
			<line class="st2" x1="417.3" y1="666.2" x2="417.3" y2="1226.4"/>
		</g>
		<g>
			<line class="st2" x1="427.3" y1="666.2" x2="427.3" y2="1226.4"/>
		</g>
		<g>
			<line class="st2" x1="437.3" y1="666.2" x2="437.3" y2="1226.4"/>
		</g>
		<g>
			<line class="st2" x1="447.3" y1="666.2" x2="447.3" y2="1226.4"/>
		</g>
		<g>
			<line class="st2" x1="457.3" y1="666.2" x2="457.3" y2="1226.4"/>
		</g>
		<g>
			<line class="st2" x1="467.3" y1="666.2" x2="467.3" y2="1226.4"/>
		</g>
		<g>
			<line class="st2" x1="477.3" y1="666.2" x2="477.3" y2="1226.4"/>
		</g>
		<g>
			<line class="st2" x1="487.3" y1="666.2" x2="487.3" y2="1226.4"/>
		</g>
		<g>
			<line class="st2" x1="497.3" y1="666.2" x2="497.3" y2="1226.4"/>
		</g>
		<g>
			<line class="st2" x1="507.3" y1="666.2" x2="507.3" y2="1226.4"/>
		</g>
		<g>
			<line class="st2" x1="517.3" y1="666.2" x2="517.3" y2="1226.4"/>
		</g>
		<g>
			<line class="st2" x1="527.3" y1="666.2" x2="527.3" y2="1226.4"/>
		</g>
		<g>
			<line class="st2" x1="537.3" y1="666.2" x2="537.3" y2="1226.4"/>
		</g>
		<g>
			<line class="st2" x1="547.3" y1="666.2" x2="547.3" y2="1226.4"/>
		</g>
		<g>
			<line class="st2" x1="557.3" y1="666.2" x2="557.3" y2="1226.4"/>
		</g>
		<g>
			<line class="st2" x1="567.3" y1="666.2" x2="567.3" y2="1226.4"/>
		</g>
		<g>
			<line class="st2" x1="577.3" y1="666.2" x2="577.3" y2="1226.4"/>
		</g>
		<g>
			<line class="st2" x1="587.3" y1="666.2" x2="587.3" y2="1226.4"/>
		</g>
		<g>
			<line class="st2" x1="597.3" y1="666.2" x2="597.3" y2="1226.4"/>
		</g>
		<g>
			<line class="st2" x1="607.3" y1="666.2" x2="607.3" y2="1226.4"/>
		</g>
		<g>
			<line class="st2" x1="617.3" y1="666.2" x2="617.3" y2="1226.4"/>
		</g>
	</g>
	<g class="st1">
		<g>
			<line class="st2" x1="636.7" y1="666.2" x2="1478.6" y2="666.2"/>
		</g>
		<g>
			<line class="st2" x1="636.7" y1="676.2" x2="1478.6" y2="676.2"/>
		</g>
		<g>
			<line class="st2" x1="636.7" y1="686.2" x2="1478.6" y2="686.2"/>
		</g>
		<g>
			<line class="st2" x1="636.7" y1="696.2" x2="1478.6" y2="696.2"/>
		</g>
		<g>
			<line class="st2" x1="636.7" y1="706.2" x2="1478.6" y2="706.2"/>
		</g>
		<g>
			<line class="st2" x1="636.7" y1="716.2" x2="1478.6" y2="716.2"/>
		</g>
		<g>
			<line class="st2" x1="636.7" y1="726.2" x2="1478.6" y2="726.2"/>
		</g>
		<g>
			<line class="st2" x1="636.7" y1="736.2" x2="1478.6" y2="736.2"/>
		</g>
		<g>
			<line class="st2" x1="636.7" y1="746.2" x2="1478.6" y2="746.2"/>
		</g>
		<g>
			<line class="st2" x1="636.7" y1="756.2" x2="1478.6" y2="756.2"/>
		</g>
		<g>
			<line class="st2" x1="636.7" y1="766.2" x2="1478.6" y2="766.2"/>
		</g>
		<g>
			<line class="st2" x1="636.7" y1="776.2" x2="1478.6" y2="776.2"/>
		</g>
		<g>
			<line class="st2" x1="636.7" y1="786.2" x2="1478.6" y2="786.2"/>
		</g>
		<g>
			<line class="st2" x1="636.7" y1="796.2" x2="1478.6" y2="796.2"/>
		</g>
		<g>
			<line class="st2" x1="636.7" y1="806.2" x2="1478.6" y2="806.2"/>
		</g>
		<g>
			<line class="st2" x1="636.7" y1="816.2" x2="1478.6" y2="816.2"/>
		</g>
		<g>
			<line class="st2" x1="636.7" y1="826.2" x2="1478.6" y2="826.2"/>
		</g>
		<g>
			<line class="st2" x1="636.7" y1="836.2" x2="1478.6" y2="836.2"/>
		</g>
		<g>
			<line class="st2" x1="636.7" y1="846.2" x2="1478.6" y2="846.2"/>
		</g>
		<g>
			<line class="st2" x1="636.7" y1="856.2" x2="1478.6" y2="856.2"/>
		</g>
		<g>
			<line class="st2" x1="636.7" y1="866.2" x2="1478.6" y2="866.2"/>
		</g>
		<g>
			<line class="st2" x1="636.7" y1="876.2" x2="1478.6" y2="876.2"/>
		</g>
		<g>
			<line class="st2" x1="636.7" y1="886.2" x2="1478.6" y2="886.2"/>
		</g>
		<g>
			<line class="st2" x1="636.7" y1="896.2" x2="1478.6" y2="896.2"/>
		</g>
		<g>
			<line class="st2" x1="636.7" y1="906.2" x2="1478.6" y2="906.2"/>
		</g>
		<g>
			<line class="st2" x1="636.7" y1="916.2" x2="1478.6" y2="916.2"/>
		</g>
		<g>
			<line class="st2" x1="636.7" y1="926.2" x2="1478.6" y2="926.2"/>
		</g>
		<g>
			<line class="st2" x1="636.7" y1="936.2" x2="1478.6" y2="936.2"/>
		</g>
		<g>
			<line class="st2" x1="636.7" y1="946.2" x2="1478.6" y2="946.2"/>
		</g>
		<g>
			<line class="st2" x1="636.7" y1="956.2" x2="1478.6" y2="956.2"/>
		</g>
		<g>
			<line class="st2" x1="636.7" y1="966.2" x2="1478.6" y2="966.2"/>
		</g>
		<g>
			<line class="st2" x1="636.7" y1="976.2" x2="1478.6" y2="976.2"/>
		</g>
		<g>
			<line class="st2" x1="636.7" y1="986.2" x2="1478.6" y2="986.2"/>
		</g>
		<g>
			<line class="st2" x1="636.7" y1="996.2" x2="1478.6" y2="996.2"/>
		</g>
		<g>
			<line class="st2" x1="636.7" y1="1006.2" x2="1478.6" y2="1006.2"/>
		</g>
		<g>
			<line class="st2" x1="636.7" y1="1016.2" x2="1478.6" y2="1016.2"/>
		</g>
		<g>
			<line class="st2" x1="636.7" y1="1026.2" x2="1478.6" y2="1026.2"/>
		</g>
		<g>
			<line class="st2" x1="636.7" y1="1036.2" x2="1478.6" y2="1036.2"/>
		</g>
		<g>
			<line class="st2" x1="636.7" y1="1046.2" x2="1478.6" y2="1046.2"/>
		</g>
		<g>
			<line class="st2" x1="636.7" y1="1056.2" x2="1478.6" y2="1056.2"/>
		</g>
		<g>
			<line class="st2" x1="636.7" y1="1066.2" x2="1478.6" y2="1066.2"/>
		</g>
		<g>
			<line class="st2" x1="636.7" y1="1076.2" x2="1478.6" y2="1076.2"/>
		</g>
		<g>
			<line class="st2" x1="636.7" y1="1086.2" x2="1478.6" y2="1086.2"/>
		</g>
		<g>
			<line class="st2" x1="636.7" y1="1096.2" x2="1478.6" y2="1096.2"/>
		</g>
		<g>
			<line class="st2" x1="636.7" y1="1106.2" x2="1478.6" y2="1106.2"/>
		</g>
		<g>
			<line class="st2" x1="636.7" y1="1116.2" x2="1478.6" y2="1116.2"/>
		</g>
		<g>
			<line class="st2" x1="636.7" y1="1126.2" x2="1478.6" y2="1126.2"/>
		</g>
		<g>
			<line class="st2" x1="636.7" y1="1136.2" x2="1478.6" y2="1136.2"/>
		</g>
		<g>
			<line class="st2" x1="636.7" y1="1146.2" x2="1478.6" y2="1146.2"/>
		</g>
		<g>
			<line class="st2" x1="636.7" y1="1156.2" x2="1478.6" y2="1156.2"/>
		</g>
		<g>
			<line class="st2" x1="636.7" y1="1166.2" x2="1478.6" y2="1166.2"/>
		</g>
		<g>
			<line class="st2" x1="636.7" y1="1176.2" x2="1478.6" y2="1176.2"/>
		</g>
		<g>
			<line class="st2" x1="636.7" y1="1186.2" x2="1478.6" y2="1186.2"/>
		</g>
		<g>
			<line class="st2" x1="636.7" y1="1196.2" x2="1478.6" y2="1196.2"/>
		</g>
		<g>
			<line class="st2" x1="636.7" y1="1206.2" x2="1478.6" y2="1206.2"/>
		</g>
		<g>
			<line class="st2" x1="636.7" y1="1216.2" x2="1478.6" y2="1216.2"/>
		</g>
		<g>
			<line class="st2" x1="636.7" y1="1226.2" x2="1478.6" y2="1226.2"/>
		</g>
		<g>
			<line class="st2" x1="647.7" y1="666.2" x2="647.7" y2="1226.4"/>
		</g>
		<g>
			<line class="st2" x1="657.7" y1="666.2" x2="657.7" y2="1226.4"/>
		</g>
		<g>
			<line class="st2" x1="667.7" y1="666.2" x2="667.7" y2="1226.4"/>
		</g>
		<g>
			<line class="st2" x1="677.7" y1="666.2" x2="677.7" y2="1226.4"/>
		</g>
		<g>
			<line class="st2" x1="687.7" y1="666.2" x2="687.7" y2="1226.4"/>
		</g>
		<g>
			<line class="st2" x1="697.7" y1="666.2" x2="697.7" y2="1226.4"/>
		</g>
		<g>
			<line class="st2" x1="707.7" y1="666.2" x2="707.7" y2="1226.4"/>
		</g>
		<g>
			<line class="st2" x1="717.7" y1="666.2" x2="717.7" y2="1226.4"/>
		</g>
		<g>
			<line class="st2" x1="727.7" y1="666.2" x2="727.7" y2="1226.4"/>
		</g>
		<g>
			<line class="st2" x1="737.7" y1="666.2" x2="737.7" y2="1226.4"/>
		</g>
		<g>
			<line class="st2" x1="747.7" y1="666.2" x2="747.7" y2="1226.4"/>
		</g>
		<g>
			<line class="st2" x1="757.7" y1="666.2" x2="757.7" y2="1226.4"/>
		</g>
		<g>
			<line class="st2" x1="767.7" y1="666.2" x2="767.7" y2="1226.4"/>
		</g>
		<g>
			<line class="st2" x1="777.7" y1="666.2" x2="777.7" y2="1226.4"/>
		</g>
		<g>
			<line class="st2" x1="787.7" y1="666.2" x2="787.7" y2="1226.4"/>
		</g>
		<g>
			<line class="st2" x1="797.7" y1="666.2" x2="797.7" y2="1226.4"/>
		</g>
		<g>
			<line class="st2" x1="807.7" y1="666.2" x2="807.7" y2="1226.4"/>
		</g>
		<g>
			<line class="st2" x1="817.7" y1="666.2" x2="817.7" y2="1226.4"/>
		</g>
		<g>
			<line class="st2" x1="827.7" y1="666.2" x2="827.7" y2="1226.4"/>
		</g>
		<g>
			<line class="st2" x1="837.7" y1="666.2" x2="837.7" y2="1226.4"/>
		</g>
		<g>
			<line class="st2" x1="847.7" y1="666.2" x2="847.7" y2="1226.4"/>
		</g>
		<g>
			<line class="st2" x1="857.7" y1="666.2" x2="857.7" y2="1226.4"/>
		</g>
		<g>
			<line class="st2" x1="867.7" y1="666.2" x2="867.7" y2="1226.4"/>
		</g>
		<g>
			<line class="st2" x1="877.7" y1="666.2" x2="877.7" y2="1226.4"/>
		</g>
		<g>
			<line class="st2" x1="887.7" y1="666.2" x2="887.7" y2="1226.4"/>
		</g>
		<g>
			<line class="st2" x1="897.7" y1="666.2" x2="897.7" y2="1226.4"/>
		</g>
		<g>
			<line class="st2" x1="907.7" y1="666.2" x2="907.7" y2="1226.4"/>
		</g>
		<g>
			<line class="st2" x1="917.7" y1="666.2" x2="917.7" y2="1226.4"/>
		</g>
		<g>
			<line class="st2" x1="927.7" y1="666.2" x2="927.7" y2="1226.4"/>
		</g>
		<g>
			<line class="st2" x1="937.7" y1="666.2" x2="937.7" y2="1226.4"/>
		</g>
		<g>
			<line class="st2" x1="947.7" y1="666.2" x2="947.7" y2="1226.4"/>
		</g>
		<g>
			<line class="st2" x1="957.7" y1="666.2" x2="957.7" y2="1226.4"/>
		</g>
		<g>
			<line class="st2" x1="967.7" y1="666.2" x2="967.7" y2="1226.4"/>
		</g>
		<g>
			<line class="st2" x1="977.7" y1="666.2" x2="977.7" y2="1226.4"/>
		</g>
		<g>
			<line class="st2" x1="987.7" y1="666.2" x2="987.7" y2="1226.4"/>
		</g>
		<g>
			<line class="st2" x1="997.7" y1="666.2" x2="997.7" y2="1226.4"/>
		</g>
		<g>
			<line class="st2" x1="1007.7" y1="666.2" x2="1007.7" y2="1226.4"/>
		</g>
		<g>
			<line class="st2" x1="1017.7" y1="666.2" x2="1017.7" y2="1226.4"/>
		</g>
		<g>
			<line class="st2" x1="1027.7" y1="666.2" x2="1027.7" y2="1226.4"/>
		</g>
		<g>
			<line class="st2" x1="1037.7" y1="666.2" x2="1037.7" y2="1226.4"/>
		</g>
		<g>
			<line class="st2" x1="1047.7" y1="666.2" x2="1047.7" y2="1226.4"/>
		</g>
		<g>
			<line class="st2" x1="1057.7" y1="666.2" x2="1057.7" y2="1226.4"/>
		</g>
		<g>
			<line class="st2" x1="1067.7" y1="666.2" x2="1067.7" y2="1226.4"/>
		</g>
		<g>
			<line class="st2" x1="1077.7" y1="666.2" x2="1077.7" y2="1226.4"/>
		</g>
		<g>
			<line class="st2" x1="1087.7" y1="666.2" x2="1087.7" y2="1226.4"/>
		</g>
		<g>
			<line class="st2" x1="1097.7" y1="666.2" x2="1097.7" y2="1226.4"/>
		</g>
		<g>
			<line class="st2" x1="1107.7" y1="666.2" x2="1107.7" y2="1226.4"/>
		</g>
		<g>
			<line class="st2" x1="1117.7" y1="666.2" x2="1117.7" y2="1226.4"/>
		</g>
		<g>
			<line class="st2" x1="1127.7" y1="666.2" x2="1127.7" y2="1226.4"/>
		</g>
		<g>
			<line class="st2" x1="1137.7" y1="666.2" x2="1137.7" y2="1226.4"/>
		</g>
		<g>
			<line class="st2" x1="1147.7" y1="666.2" x2="1147.7" y2="1226.4"/>
		</g>
		<g>
			<line class="st2" x1="1157.7" y1="666.2" x2="1157.7" y2="1226.4"/>
		</g>
		<g>
			<line class="st2" x1="1167.7" y1="666.2" x2="1167.7" y2="1226.4"/>
		</g>
		<g>
			<line class="st2" x1="1177.7" y1="666.2" x2="1177.7" y2="1226.4"/>
		</g>
		<g>
			<line class="st2" x1="1187.7" y1="666.2" x2="1187.7" y2="1226.4"/>
		</g>
		<g>
			<line class="st2" x1="1197.7" y1="666.2" x2="1197.7" y2="1226.4"/>
		</g>
		<g>
			<line class="st2" x1="1207.7" y1="666.2" x2="1207.7" y2="1226.4"/>
		</g>
		<g>
			<line class="st2" x1="1217.7" y1="666.2" x2="1217.7" y2="1226.4"/>
		</g>
		<g>
			<line class="st2" x1="1227.7" y1="666.2" x2="1227.7" y2="1226.4"/>
		</g>
		<g>
			<line class="st2" x1="1237.7" y1="666.2" x2="1237.7" y2="1226.4"/>
		</g>
		<g>
			<line class="st2" x1="1247.7" y1="666.2" x2="1247.7" y2="1226.4"/>
		</g>
		<g>
			<line class="st2" x1="1257.7" y1="666.2" x2="1257.7" y2="1226.4"/>
		</g>
		<g>
			<line class="st2" x1="1267.7" y1="666.2" x2="1267.7" y2="1226.4"/>
		</g>
		<g>
			<line class="st2" x1="1277.7" y1="666.2" x2="1277.7" y2="1226.4"/>
		</g>
		<g>
			<line class="st2" x1="1287.7" y1="666.2" x2="1287.7" y2="1226.4"/>
		</g>
		<g>
			<line class="st2" x1="1297.7" y1="666.2" x2="1297.7" y2="1226.4"/>
		</g>
		<g>
			<line class="st2" x1="1307.7" y1="666.2" x2="1307.7" y2="1226.4"/>
		</g>
		<g>
			<line class="st2" x1="1317.7" y1="666.2" x2="1317.7" y2="1226.4"/>
		</g>
		<g>
			<line class="st2" x1="1327.7" y1="666.2" x2="1327.7" y2="1226.4"/>
		</g>
		<g>
			<line class="st2" x1="1337.7" y1="666.2" x2="1337.7" y2="1226.4"/>
		</g>
		<g>
			<line class="st2" x1="1347.7" y1="666.2" x2="1347.7" y2="1226.4"/>
		</g>
		<g>
			<line class="st2" x1="1357.7" y1="666.2" x2="1357.7" y2="1226.4"/>
		</g>
		<g>
			<line class="st2" x1="1367.7" y1="666.2" x2="1367.7" y2="1226.4"/>
		</g>
		<g>
			<line class="st2" x1="1377.7" y1="666.2" x2="1377.7" y2="1226.4"/>
		</g>
		<g>
			<line class="st2" x1="1387.7" y1="666.2" x2="1387.7" y2="1226.4"/>
		</g>
		<g>
			<line class="st2" x1="1397.7" y1="666.2" x2="1397.7" y2="1226.4"/>
		</g>
		<g>
			<line class="st2" x1="1407.7" y1="666.2" x2="1407.7" y2="1226.4"/>
		</g>
		<g>
			<line class="st2" x1="1417.7" y1="666.2" x2="1417.7" y2="1226.4"/>
		</g>
		<g>
			<line class="st2" x1="1427.7" y1="666.2" x2="1427.7" y2="1226.4"/>
		</g>
		<g>
			<line class="st2" x1="1437.7" y1="666.2" x2="1437.7" y2="1226.4"/>
		</g>
		<g>
			<line class="st2" x1="1447.7" y1="666.2" x2="1447.7" y2="1226.4"/>
		</g>
		<g>
			<line class="st2" x1="1457.7" y1="666.2" x2="1457.7" y2="1226.4"/>
		</g>
		<g>
			<line class="st2" x1="1467.7" y1="666.2" x2="1467.7" y2="1226.4"/>
		</g>
	</g>
</g>
<g id="design">
	<g>
	</g>
</g>
<g id="wallpaer">
	<g>
		<polygon class="st3" points="105.8,68.8 104.9,67.9 75,77.8 45.1,67.9 44.2,68.8 66.7,89.7 75,80 83.2,89.7 		"/>
		<path class="st3" d="M70.6,54c0.3-0.8,0.5-1.7,0.5-2.7c0-1-0.2-1.9-0.5-2.7c-0.3-0.8-0.8-1.5-1.3-2.1c-0.6-0.6-1.2-1.1-2-1.4
			c-0.8-0.3-1.6-0.5-2.6-0.5c-0.9,0-1.8,0.2-2.6,0.5c-0.8,0.3-1.4,0.8-2,1.4c-0.6,0.6-1,1.3-1.3,2.1c-0.3,0.8-0.5,1.7-0.5,2.7
			c0,1,0.2,1.9,0.5,2.7c0.3,0.8,0.7,1.5,1.3,2.1c0.6,0.6,1.2,1,2,1.4c0.8,0.3,1.6,0.5,2.6,0.5c0.9,0,1.8-0.2,2.6-0.5
			c0.8-0.3,1.5-0.8,2-1.4C69.9,55.5,70.3,54.8,70.6,54z M68.1,55.1c-0.4,0.5-0.9,0.8-1.5,1.1c-0.6,0.2-1.2,0.4-1.9,0.4
			c-0.7,0-1.3-0.1-1.9-0.4c-0.6-0.3-1.1-0.6-1.5-1.1c-0.4-0.5-0.7-1-1-1.6c-0.2-0.6-0.3-1.3-0.3-2c0-0.8,0.1-1.5,0.4-2.2
			c0.2-0.6,0.6-1.2,1-1.7c0.4-0.5,0.9-0.8,1.5-1.1c0.6-0.2,1.2-0.4,1.9-0.4c0.7,0,1.3,0.1,1.8,0.4c0.6,0.2,1.1,0.6,1.5,1
			c0.4,0.5,0.8,1,1,1.7c0.2,0.6,0.4,1.4,0.4,2.2c0,0.8-0.1,1.5-0.4,2.1C68.9,54.1,68.6,54.6,68.1,55.1z"/>
		<rect x="74.3" y="37.6" class="st3" width="1.5" height="20.1"/>
		<path class="st3" d="M50.5,19.6c0.4-0.4,0.9-0.7,1.5-0.7c0.6,0,1.1,0.3,1.4,0.6l0.8-1.2c-0.4-0.4-1.3-0.9-2.3-0.9
			c-0.3,0-0.7,0.1-1.1,0.3c-0.9,0.6-1.9,1.8-2.2,2.2l-0.5,0.7v-2.9h-1.4v12.8h1.4v-7.7l0,0C49,21.3,50.2,20,50.5,19.6z"/>
		<path class="st3" d="M101.4,46.9c0.4-0.4,0.9-0.7,1.5-0.7c0.6,0,1.1,0.3,1.4,0.6l0.8-1.2c-0.4-0.4-1.3-0.9-2.3-0.9
			c-0.3,0-0.7,0.1-1.1,0.3c-0.9,0.6-1.9,1.8-2.2,2.2L99,47.8v-2.9h-1.4v12.8H99V50l0,0C99.9,48.6,101.1,47.3,101.4,46.9z"/>
		<rect x="79.3" y="37.6" class="st3" width="1.5" height="20.1"/>
		<path class="st3" d="M92.6,55.7v2H94v-8c0-1.7-0.4-2.9-1.3-3.8c-0.8-0.8-2.1-1.3-3.4-1.3c-1.7,0-3.4,0.7-4.6,1.7l0.8,1.1
			c1.1-0.9,2.5-1.5,3.8-1.5c1.2,0,2.2,0.5,2.7,1.4c0.6,1,0.6,2.2,0.6,2.9v0.3l-0.3-0.1c-0.5-0.1-1.8-0.3-2.8-0.3
			c-0.9,0-2.9,0-4.2,0.9c-1,0.7-1.5,1.6-1.5,2.9c0,0.6,0.1,1.6,0.7,2.3c0.4,0.5,1,0.9,1.7,1.2c0.7,0.2,1.6,0.3,2.1,0.3
			C91.2,57.9,92.6,55.7,92.6,55.7z M91.1,55.6c-0.7,0.5-1.6,0.8-2.7,0.8c-1,0-1.8-0.2-2.3-0.6c-0.5-0.4-0.8-1.1-0.8-1.8
			c0-0.7,0.4-1.4,1.1-1.8c0.7-0.4,1.7-0.6,3-0.6c1.4,0,2.8,0.4,3,0.5l0.2,0.1v1.8l0,0.1C92.2,54.5,91.9,55,91.1,55.6z"/>
		<path class="st3" d="M56.8,55.4l-1.1-0.9c-0.1,0.2-0.8,1.1-1.9,1.6c-0.6,0.3-1.2,0.4-1.9,0.4c-0.7,0-1.3-0.1-1.9-0.4
			c-0.6-0.3-1.1-0.6-1.5-1.1c-0.4-0.5-0.7-1-0.9-1.6c-0.2-0.6-0.3-1.3-0.3-2c0-0.8,0.1-1.5,0.3-2.2c0.2-0.6,0.6-1.2,1-1.7
			c0.4-0.5,0.9-0.8,1.5-1.1c0.6-0.2,1.2-0.4,1.8-0.4c0.6,0,1.3,0.1,1.8,0.4c1,0.5,1.6,1.3,1.7,1.4l1.1-0.9c-0.3-0.4-1.1-1.3-2.1-1.8
			c-0.7-0.3-1.6-0.5-2.4-0.6l-0.1,0c-0.9,0-1.7,0.2-2.5,0.5c-0.7,0.3-1.4,0.8-1.9,1.4c-0.5,0.6-1,1.3-1.3,2.1
			c-0.3,0.8-0.4,1.7-0.4,2.7c0,1,0.2,1.9,0.5,2.7c0.3,0.8,0.7,1.5,1.3,2.1c0.5,0.6,1.2,1,1.9,1.4c0.7,0.3,1.6,0.5,2.5,0.5
			c0.9,0,1.7-0.2,2.5-0.5c0.8-0.3,1.4-0.8,1.9-1.4C56.5,55.9,56.6,55.6,56.8,55.4z"/>
		<path class="st3" d="M66.4,28.3l-0.9-1c-0.4,0.5-0.8,0.9-1.3,1.2c-0.7,0.4-1.5,0.6-2.3,0.7h-0.1c-1.2,0-2.3-0.4-3.2-1.1
			c-0.9-0.7-1.4-1.9-1.5-3.3l0-0.3h9.8c0.1-0.5,0.1-1,0.1-1.3c0-0.9-0.1-1.7-0.4-2.4c-0.3-0.7-0.7-1.3-1.1-1.8
			c-0.5-0.5-1.1-0.9-1.7-1.2c-0.7-0.3-1.4-0.4-2.2-0.4c-1,0-1.8,0.2-2.6,0.5c-0.7,0.3-1.4,0.8-1.9,1.4c-0.5,0.6-0.9,1.3-1.1,2.1
			c-0.3,0.8-0.4,1.7-0.4,2.7c0,1,0.2,2,0.5,2.8c0.3,0.8,0.7,1.5,1.3,2.1c0.5,0.6,1.2,1,2,1.3c0.8,0.3,1.6,0.5,2.6,0.5
			c1,0,1.8-0.2,2.6-0.6C65.2,29.6,65.9,29.1,66.4,28.3z M57.1,22.7c0.2-1.2,0.7-2.2,1.5-2.9c0.7-0.7,1.7-1.1,2.9-1.1
			c1.1,0,2,0.3,2.8,1c0.7,0.7,1.1,1.6,1.3,2.9l0,0.4H57L57.1,22.7z"/>
		<path class="st3" d="M79.2,28.6v1.8h1.4V10.3h-1.4v8.6l-0.4-0.4c-0.3-0.3-1.4-1.2-3.3-1.2c-0.8,0-1.6,0.2-2.4,0.5
			c-0.8,0.3-1.4,0.8-2,1.4c-0.6,0.6-1,1.3-1.3,2.1c-0.3,0.8-0.5,1.7-0.5,2.7c0,1.1,0.1,2,0.4,2.8c0.3,0.8,0.7,1.5,1.2,2
			c0.5,0.6,1.2,1,1.9,1.3c0.7,0.3,1.5,0.4,2.4,0.4c0.9,0,1.8-0.3,2.3-0.6C78.7,29.4,79.2,28.6,79.2,28.6z M75.5,29.2
			c-1.3,0-2.4-0.5-3.3-1.4c-0.8-0.9-1.3-2.2-1.3-3.8c0-0.8,0.1-1.5,0.4-2.2c0.3-0.6,0.6-1.2,1-1.6c0.4-0.4,0.9-0.8,1.5-1
			c0.6-0.2,1.2-0.3,1.8-0.3c2.3,0,3.4,1.9,3.5,2l0,0.1l0,5.3c-0.2,0.5-0.8,1.5-1.6,2.1C77.2,28.7,76.4,29.2,75.5,29.2z"/>
	</g>
</g>
</svg>
